/* XPM */
static char *result[] = {
/* columns rows colors chars-per-pixel */
"32 32 171 2 ",
"   c #3D253B",
".  c #321D2C",
"X  c #2B1823",
"o  c #311C2B",
"O  c #2E1A27",
"+  c #25131A",
"@  c #2D1925",
"#  c #2F1A27",
"$  c #613832",
"%  c #814B38",
"&  c #663B33",
"*  c #2B1722",
"=  c #834C39",
"-  c #BF704D",
";  c #8C513C",
":  c #2A1620",
">  c #331E2E",
",  c #615E6A",
"<  c #70737E",
"1  c #A4928F",
"2  c #C4A69A",
"3  c #BE9E92",
"4  c #B79588",
"5  c #9B847F",
"6  c #63626D",
"7  c #5A5560",
"8  c #331D2D",
"9  c #28151D",
"0  c #A1B2BF",
"q  c #CAE6F5",
"w  c #BCD5E3",
"e  c #ADC1CF",
"r  c #93A0AD",
"t  c #26141C",
"y  c #3C253A",
"u  c #7A808B",
"i  c #96A4B0",
"p  c #B0C5D3",
"a  c #C1DAE9",
"s  c #B8CEDD",
"d  c #9FAFBC",
"f  c #828A96",
"g  c #71747F",
"h  c #3C2439",
"j  c #787E89",
"k  c #808893",
"l  c #3D253A",
"z  c #3B2F37",
"x  c #423840",
"c  c #87828D",
"v  c #B3B2BE",
"b  c #8E8994",
"n  c #3C3139",
"m  c #CD99A2",
"M  c #CF686D",
"N  c #CD929A",
"B  c #ABBECC",
"V  c #3C243A",
"C  c #2C1B24",
"Z  c #2A1A21",
"A  c #A3B1BE",
"S  c #CAE2F1",
"D  c #CD97A0",
"F  c #CD9098",
"G  c #CAE1F0",
"H  c #ACBCC9",
"J  c #2B1A22",
"K  c #3B2338",
"L  c #26141B",
"P  c #B3C9D7",
"I  c #C4DEEC",
"U  c #CC8990",
"Y  c #CF6D72",
"T  c #CF6A6F",
"R  c #C96166",
"E  c #BD5257",
"W  c #BE6C73",
"Q  c #BCD4E3",
"!  c #2A1920",
"~  c #392236",
"^  c #3A2337",
"/  c #B9D0DE",
"(  c #CE878E",
")  c #C95F64",
"_  c #BC4C51",
"`  c #BF6970",
"'  c #C2DCEB",
"]  c #29181F",
"[  c #382134",
"{  c #291620",
"}  c #372933",
"|  c #ACC0CD",
" . c #CB868D",
".. c #CE7F86",
"X. c #CF6E73",
"o. c #C55A5F",
"O. c #BF5156",
"+. c #BE4F54",
"@. c #BC5157",
"#. c #BF686F",
"$. c #ADBECB",
"%. c #3F323D",
"&. c #372033",
"*. c #372133",
"=. c #372A32",
"-. c #CE757B",
";. c #C3575C",
":. c #BD5359",
">. c #40363E",
",. c #361F31",
"<. c #3A2336",
"1. c #C2555A",
"2. c #BC5257",
"3. c #B6CAD8",
"4. c #B6CDDB",
"5. c #3D323A",
"6. c #392235",
"7. c #372132",
"8. c #3B2337",
"9. c #C15358",
"0. c #BB5157",
"q. c #ADBECC",
"w. c #3C3038",
"e. c #372131",
"r. c #392336",
"t. c #CCB2BD",
"y. c #CCACB6",
"u. c #C0646A",
"i. c #BA585E",
"p. c #B48B95",
"a. c #B48D97",
"s. c #ADC0CE",
"d. c #3A2338",
"f. c #BF7279",
"g. c #B96269",
"h. c #3B2438",
"j. c #372032",
"k. c #2C1823",
"l. c #362530",
"z. c #89939F",
"x. c #C3DDEC",
"c. c #BB959F",
"v. c #B67A83",
"b. c #B48791",
"n. c #797E89",
"m. c #777C88",
"M. c #3B2A37",
"N. c #362030",
"B. c #341F2E",
"V. c #B4CAD8",
"C. c #A7B9C7",
"Z. c #28171E",
"A. c #382133",
"S. c #362031",
"D. c #2B1822",
"F. c #94A1AD",
"G. c #A0B1BE",
"H. c #909CA8",
"J. c #8B95A1",
"K. c #868F9B",
"L. c #2D1B25",
"P. c #352030",
"I. c #331E2D",
"U. c #2A1721",
"Y. c #28151E",
"T. c #27151D",
"R. c #27141C",
"E. c #29161F",
"W. c #301C29",
"Q. c #382234",
"!. c #2F1B27",
/* pixels */
"                                                                ",
"                                                                ",
"                                                                ",
"                                                                ",
"                                                                ",
"                                                                ",
"                            . X X X o                           ",
"                            O + + + @                           ",
"                        . # $ % % % & # o                       ",
"                        * + = - - - ; + :                       ",
"                    > . , < 1 2 3 4 5 6 7 . 8                   ",
"                    9 + 0 q q q w e e e r + t y           y     ",
"                    9 + u i p a s e d f g + t y           h     ",
"                    9 + + + j e e e k + + + t y           l     ",
"                    9 + z x c v v v b x n + t y                 ",
"                    9 + 0 q m M M M N q B + t y                 ",
"                V V C Z A S D M M M F G H Z J h V               ",
"              K L L P I U Y T M M M R E W I Q ! L ~       l     ",
"              ^ + + / q ( M M M M M ) _ ` q ' ] + ~       h     ",
"          [ { } | |  ...X.M o.O.O.O.+._ @.#.W $.| %.{ &.  K l   ",
"          *.+ =.q q -.M M M ;._ _ _ _ _ _ _ :.S q >.+ ,.  ~ <.y ",
"          *.+ =.q q -.M o.1.+._ _ _ _ _ _ _ 2.3.4.5.+ ,.  6.7.8.",
"          *.+ =.q q -.M 9._ _ _ _ _ _ _ _ _ 0.q.e w.+ ,.  6.e.r.",
"          *.+ =.q q t.y.u._ _ _ _ _ _ _ i.p.a.s.e w.+ ,.  6.e.d.",
"          *.+ =.q q q q f._ _ _ _ _ _ _ g.e e e e w.+ ,.  6.e.h.",
"^ ^ ^ ^ ^ j.k.l.z.z.x.q c.v.v.v.v.v.v.v.b.e B n.m.M.O 6.  6.N.^ ",
"N.N.N.N.N.N.N.B.+ + / q V.e e e e e e e e e C.Z.+ ~       6.N.6.",
"N.e.A.A.A.A.A.S.D.D.F.G.H.J.J.J.J.J.J.J.J.J.K.L.D.^       6.N.P.",
"N.<.                9 + + + + + + + + + + + t y           6.N.I.",
"<.h.                U.Y.Y.Y.Y.Y.T.R.T.Y.Y.Y.E.y           6.N.W.",
"                                <.N.Q.                    6.N.!.",
"                                <.N.Q.                    6.N.I."
};
