/* XPM */
static char *abd72d8f2626432480a80008f3be5578TwzcmOGUd8VjFT1J[] = {
/* columns rows colors chars-per-pixel */
"32 32 9 1 ",
"  c #3D253B",
". c #362030",
"X c #25131A",
"o c #BF704D",
"O c #CAE6F5",
"+ c #ADC1CF",
"@ c #CF686D",
"# c #BC4C51",
"$ c white",
/* pixels */
"  ................              ",
"  ................              ",
"                            ..XX",
"                            ..XX",
"                            ..XX",
"                            ..XX",
"              XXXX          ..XX",
"              XXXX          ..XX",
"            XXooooXX        ..XX",
"            XXooooXX        ..XX",
"          XXOOOO++++XX      ..XX",
"          XXOOOO++++XX      ..XX",
"          XXXX++++XXXX      ..XX",
"          XXXX++++XXXX      ..XX",
"          XXOO@@@@OOXX      ..XX",
"          XXOO@@@@OOXX      ..XX",
"        XXOO@@@@@@##OOXX    ..XX",
"        XXOO@@@@@@##OOXX    ..XX",
"      XXOO@@@@########OOXX  ..XX",
"      XXOO@@@@########OOXX  ..XX",
"      XXOO@@##########++XX  ..XX",
"      XXOO@@##########++XX  ..XX",
"      XXOOOO########++++XX  ..XX",
"      XXOOOO########++++XX  ..XX",
"........XXOO++++++++++XX    ..XX",
"........XXOO++++++++++XX    ..XX",
"..        XXXXXXXXXXXX      ..XX",
"..        XXXXXXXXXXXX      ..XX",
"..              ..          ..XX",
"..              ..          ..XX",
"..............................XX",
"..............................XX"
};
