/* XPM */
static char *_d4f68f386944f82ee3a5ca7e078243cm2ZxHSmRrhhVSSPw[] = {
/* columns rows colors chars-per-pixel */
"32 32 9 1 ",
"  c #3D253B",
". c #362030",
"X c #BF704D",
"o c #895A45",
"O c #90919E",
"+ c #ADC1CF",
"@ c #25131A",
"# c #523B40",
"$ c white",
/* pixels */
"                    ............",
"      XXXX            XXXX      ",
"      XXXX            XXXX      ",
"      oooo            oooo      ",
"      oooo            oooo      ",
"      oooo            oooo      ",
"      oooo            oooo      ",
"....XXOO++XXXXXXXXXXXX++OOXX....",
"....XXOO++XXXXXXXXXXXX++OOXX....",
"....oooooooooooooooooooooooo....",
"....oooooooooooooooooooooooo....",
"..@@@@####@@@@@@@@@@@@####@@@@..",
"..@@@@####@@@@@@@@@@@@####@@@@..",
"..@@@@oooo@@@@@@@@@@@@oooo@@@@..",
"..@@@@oooo@@@@@@@@@@@@oooo@@@@..",
"..@@@@oooo@@@@@@@@@@@@oooo@@@@..",
"..@@@@oooo@@@@@@@@@@@@oooo@@@@..",
"..@@@@oooo@@@@@@@@@@@@oooo@@@@..",
"..@@@@oooo@@@@@@@@@@@@oooo@@@@..",
"..@@@@oooo@@@@@@@@@@@@oooo@@@@..",
"..@@@@oooo@@@@@@@@@@@@oooo@@@@..",
"..@@@@oooo@@@@@@@@@@@@oooo@@@@..",
"..@@@@oooo@@@@@@@@@@@@oooo@@@@..",
"..@@XXOO++XXXXXXXXXXXX++OOXX@@..",
"..@@XXOO++XXXXXXXXXXXX++OOXX@@..",
"..@@oooooooooooooooooooooooo@@..",
"..@@oooooooooooooooooooooooo@@..",
"..@@@@####@@@@@@@@@@@@####@@@@..",
"..@@@@####@@@@@@@@@@@@####@@@@..",
"..@@@@oooo@@@@@@@@@@@@oooo@@@@..",
"..@@@@oooo@@@@@@@@@@@@oooo@@@@..",
"................................"
};
