/* XPM */
static char *_74a82a119394b25805fbe5ea4fc4bdb7HfSovNWFl7EernJ[] = {
/* columns rows colors chars-per-pixel */
"32 32 125 2 ",
"   c #3D253B",
".  c #774743",
"X  c #B56C4C",
"o  c #9D5E48",
"O  c #5E3940",
"+  c #462A3C",
"@  c #623F40",
"#  c #895A45",
"$  c #7A4F43",
"%  c #52343E",
"&  c #43293C",
"*  c #372132",
"=  c #7E4A41",
"-  c #A9634A",
";  c #9C756B",
":  c #8F888F",
">  c #97959D",
",  c #A7B0B8",
"<  c #A7A0A2",
"1  c #A87968",
"2  c #A4AAB2",
"3  c #A7664F",
"4  c #502F37",
"5  c #362030",
"6  c #8B5242",
"7  c #BF704D",
"8  c #A88074",
"9  c #90919E",
"0  c #9AA1AF",
"q  c #ADC1CF",
"w  c #B1B1B5",
"e  c #BA8771",
"r  c #A9BAC8",
"t  c #BB7253",
"y  c #543136",
"u  c #74483F",
"i  c #9A6147",
"p  c #936654",
"a  c #8B6B61",
"s  c #8E7066",
"d  c #947A70",
"f  c #957568",
"g  c #986853",
"h  c #93786E",
"j  c #996249",
"k  c #4C2E35",
"l  c #6A443D",
"z  c #482D35",
"x  c #2F1B27",
"c  c #2D1924",
"v  c #44292A",
"b  c #52332D",
"n  c #5E3E37",
"m  c #6B4942",
"M  c #66453E",
"N  c #593933",
"B  c #54352F",
"V  c #351F26",
"C  c #331D2C",
"Z  c #29161F",
"A  c #25131A",
"S  c #3B262C",
"D  c #523B40",
"F  c #493338",
"G  c #321E25",
"H  c #28161D",
"J  c #301B28",
"K  c #452C2D",
"L  c #684842",
"P  c #5B3D3A",
"I  c #382225",
"U  c #2A171D",
"Y  c #55352F",
"T  c #754C3C",
"R  c #412726",
"E  c #2D181D",
"W  c #61372E",
"Q  c #864D3A",
"!  c #89645A",
"~  c #8D7C7D",
"^  c #948787",
"/  c #A09B9C",
"(  c #9A8B88",
")  c #8D6355",
"_  c #9D9697",
"`  c #86513F",
"'  c #3A2021",
"]  c #854D3A",
"[  c #462725",
"{  c #754637",
"}  c #A56549",
"|  c #996E5D",
" . c #8D7673",
".. c #927F7B",
"X. c #9C8F8C",
"o. c #9D877F",
"O. c #A2715C",
"+. c #998C89",
"@. c #A3674C",
"#. c #412524",
"$. c #633F35",
"%. c #3B2223",
"&. c #4E302C",
"*. c #674236",
"=. c #6E483D",
"-. c #764F43",
";. c #734D41",
":. c #6B453A",
">. c #684337",
",. c #331D20",
"<. c #40292D",
"1. c #5D4141",
"2. c #523839",
"3. c #352025",
"4. c #29161D",
"5. c #2A1720",
"6. c #26141B",
"7. c #53342F",
"8. c #845644",
"9. c #71493C",
"0. c #402627",
"q. c #2D191E",
"w. c #301C29",
"e. c #372130",
"r. c #372030",
/* pixels */
"          . X X X o                         O X X X X +         ",
"          @ # # # $                         % # # # # &         ",
"          @ # # # $                         % # # # # &         ",
"          @ # # # $                         % # # # # &         ",
"          @ # # # $                         % # # # # &         ",
"* * * = - ; : > , < - - - - - - - - - - - - 1 , 2 : : 3 - 4 * * ",
"5 5 5 6 7 8 9 0 q w 7 7 7 7 7 7 7 7 7 7 7 7 e q r 9 9 t 7 y 5 5 ",
"5 5 5 u i p a s d f i i i i i i i i i i i i g d h a a j i k 5 5 ",
"5 5 5 l # # # # # # # # # # # # # # # # # # # # # # # # # z 5 5 ",
"5 x c v b n m m m M b b b b b b b b b b b b N m m m m B b V c C ",
"5 Z A A A S D D D F A A A A A A A A A A A A G D D D D H A A A J ",
"5 Z A A A K L L L P A A A A A A A A A A A A I L L L L U A A A J ",
"5 Z A A A Y # # # T A A A A A A A A A A A A R # # # # E A A A J ",
"5 Z A A A Y # # # T A A A A A A A A A A A A R # # # # E A A A J ",
"5 Z A A A Y # # # T A A A A A A A A A A A A R # # # # E A A A J ",
"5 Z A A A Y # # # T A A A A A A A A A A A A R # # # # E A A A J ",
"5 Z A A A Y # # # T A A A A A A A A A A A A R # # # # E A A A J ",
"5 Z A A A Y # # # T A A A A A A A A A A A A R # # # # E A A A J ",
"5 Z A A A Y # # # T A A A A A A A A A A A A R # # # # E A A A J ",
"5 Z A A A Y # # # T A A A A A A A A A A A A R # # # # E A A A J ",
"5 Z A A A Y # # # T A A A A A A A A A A A A R # # # # E A A A J ",
"5 Z A A A Y # # # T A A A A A A A A A A A A R # # # # E A A A J ",
"5 Z A W Q ! ~ ^ / ( Q Q Q Q Q Q Q Q Q Q Q Q ) / _ ~ ~ ` Q ' A J ",
"5 Z A ] 7 8 9 0 q w 7 7 7 7 7 7 7 7 7 7 7 7 e q r 9 9 t 7 [ A J ",
"5 Z A { } |  ...X.o.} } } } } } } } } } } } O.X.+. . .@.} #.A J ",
"5 Z A $.# # # # # # # # # # # # # # # # # # # # # # # # # %.A J ",
"5 Z A &.*.=.-.-.-.;.*.*.*.*.*.*.*.*.*.*.*.*.:.-.-.-.-.>.*.,.A J ",
"5 Z A A A S D D D F A A A A A A A A A A A A G D D D D H A A A J ",
"5 Z A A A <.1.1.1.2.A A A A A A A A A A A A 3.1.1.1.1.4.A A A J ",
"5 Z A A A Y # # # T A A A A A A A A A A A A R # # # # E A A A J ",
"5 5.6.6.6.7.8.8.8.9.6.6.6.6.6.6.6.6.6.6.6.6.0.8.8.8.8.q.6.6.6.w.",
"5 5 5 5 5 5 e.e.e.r.5 5 5 5 5 5 5 5 5 5 5 5 5 e.e.e.e.5 5 5 5 5 "
};
