/* XPM */
static char *_ca240d4c8b4461dde8ebc41fce319e3yg2qhxedWa60pvfF[] = {
/* columns rows colors chars-per-pixel */
"32 32 4 1 ",
"  c #25131A",
". c #362030",
"X c #3D253B",
"o c white",
/* pixels */
"                                ",
"                                ",
" ...............................",
" ...............................",
" ..XXXXXXXXXXXXXXXXXXXXXXXXXX..X",
" ..XXXXXXXXXXXXXXXXXXXXXXXXXX..X",
" ..XXXXXXXXXXXXXXXXXXXXXXXXXX..X",
" ..XXXXXXXXXXXXXXXXXXXXXXXXXX..X",
" ..XXXXXXXXXXXX..XX....XX......X",
" ..XXXXXXXXXXXX..XX....XX......X",
" ..XXXXXXXXXXXXXXXXXXXXXXXXXXXXX",
" ..XXXXXXXXXXXXXXXXXXXXXXXXXXXXX",
" ..XXXXXXXXXXXXXXXXXXXXXXXXXXXXX",
" ..XXXXXXXXXXXXXXXXXXXXXXXXXXXXX",
" ..XXXXXXXXXXXXXXXXXXXXXXXXXXXXX",
" ..XXXXXXXXXXXXXXXXXXXXXXXXXXXXX",
" ..XXXXXXXXXXXXXXXXXXXXXXXXXXXXX",
" ..XXXXXXXXXXXXXXXXXXXXXXXXXXXXX",
" ..XXXXXXXXXXXXXXXXXXXXXXXXXXXXX",
" ..XXXXXXXXXXXXXXXXXXXXXXXXXXXXX",
" ..XXXXXXXXXXXXXXXXXXXXXXXXXXXXX",
" ..XXXXXXXXXXXXXXXXXXXXXXXXXXXXX",
" ..XXXXXXXXXXXXXXXXXXXXXXXXXXXXX",
" ..XXXXXXXXXXXXXXXXXXXXXXXXXXXXX",
" ..XXXXXXXXXXXXXXXXXXXXXXXXXXXXX",
" ..XXXXXXXXXXXXXXXXXXXXXXXXXXXXX",
" ..XXXXXXXXXXXXXXXXXXXXXXXXXXXXX",
" ..XXXXXXXXXXXXXXXXXXXXXXXXXXXXX",
" ..XXXXXXXXXXXXXXXXXXXXXXXXXXXXX",
" ..XXXXXXXXXXXXXXXXXXXXXXXXXXXXX",
" ........XX..XXXXXXXXXXXXXXXXXX.",
" ........XX..XXXXXXXXXXXXXXXXXX."
};
