/* XPM */
static char *_2d4d79877df4d69f73961bca1d0a91bV0Wh051V8jRl38Pw[] = {
/* columns rows colors chars-per-pixel */
"32 32 17 1 ",
"  c #321D2B",
". c #362030",
"X c #3A2337",
"o c #382132",
"O c #382233",
"+ c #3D253B",
"@ c #392234",
"# c #3A2336",
"$ c #3C2439",
"% c #3B2438",
"& c #392235",
"* c #3C243A",
"= c #372132",
"- c #362031",
"; c #382133",
": c #3C253A",
"> c #3D253A",
/* pixels */
"                                ",
"................................",
"XXXXXXXXXXXXXXXXXXXXXXXo.OXXXXXX",
"+++++++++++++++++++++++@.#++++++",
"+++++++++++++++++++++++@.#++++++",
"+++++++++++++++++++++++@.#++++++",
"+++++++++++++++++++++++@.#++++++",
"+++++++++++++++++++++++@.#++++++",
"+++++++++++++++++++++++@.#++++++",
"+++++++++++++++++++++++@.#++++++",
"+++++++++++++++++++++++@.#++++++",
"+++++++++++++++++++++++@.#++++++",
"+++++++++++++++++++++++@.#++++++",
"+++++++++++++++++++++++@.#++++++",
"+++++++++++++++++++++++@.#++++++",
"+++++++++++++++++++++++$%$++++++",
"++++++++++++++++++++++++++++++++",
"+++++++++++++++++++++++X&&&&&&&&",
"+++++++++++++++++++++++@........",
"+++++++++++++++++++++++X&&&&&&&&",
"++++++++++++++++++++++++++++++++",
"++++++++++++++++++++++++++++++++",
"++++++++++++++++++++++++++++++++",
"++++++*$++++++++++++++++++++++++",
"++++++=.%+++++++++++++++++++++++",
"++++++=.%+++++++++++++++++++++++",
"++++++=.%+++++++++++++++++++++++",
"++++++=.%+++++++++++++++++++++++",
"++++++=.%+++++++++++++++++++++++",
"++++++=.%+++++++++++++++++++++++",
"@@@@@@-.;@@@@@#+:@@>++++++++++++",
"..............;+$..:++++++++++++"
};
