/* XPM */
static char *_b798b979fd04c2e9b3ba5f4101f0c06O3X2lbVESDqbxcBN[] = {
/* columns rows colors chars-per-pixel */
"32 32 14 1 ",
"  c #BC4C51",
". c #3D253B",
"X c #25131A",
"o c gray7",
"O c #44504F",
"+ c #313B35",
"@ c #606E6D",
"# c black",
"$ c #CDD5D0",
"% c #362030",
"& c #9A8571",
"* c #64594F",
"= c #E6A353",
"- c white",
/* pixels */
"    ........XXXXXXXXXXXX....    ",
"    ........XXXXXXXXXXXX....    ",
"  ........XXooooooooooooXX....  ",
"  ........XXooooooooooooXX....  ",
"........XXooooooooooOOooXX......",
"........XXooooooooooOOooXX......",
"........ooooOO++++@@++++##XX....",
"........ooooOO++++@@++++##XX....",
"........ooOO@@++$$@@++$$XX......",
"........ooOO@@++$$@@++$$XX......",
"......  ooOO@@OOOO@@OOOOXX......",
"......  ooOO@@OOOO@@OOOOXX......",
"....oooo  XXOO@@@@@@@@@@XX%%%%%%",
"....oooo  XXOO@@@@@@@@@@XX%%%%%%",
"........XXXXXXXX$$XXXX$$XX....%%",
"........XXXXXXXX$$XXXX$$XX....%%",
"......XX&&**&&&&&&&&&&&&**XX..%%",
"......XX&&**&&&&&&&&&&&&**XX..%%",
"......XX**&&&&&&XX==XX&&**XX....",
"......XX**&&&&&&XX==XX&&**XX....",
"......XXXXXXXXXXXXXXXXXXXXXX....",
"......XXXXXXXXXXXXXXXXXXXXXX....",
"........XX********XX****XX......",
"........XX********XX****XX......",
"........XX&&**&&&&XX&&**XX......",
"........XX&&**&&&&XX&&**XX......",
"......XX&&****&&&&XX&&&&**XX....",
"......XX&&****&&&&XX&&&&**XX....",
"  ..XX&&****&&&&XXXXXX&&**XX..  ",
"  ..XX&&****&&&&XXXXXX&&**XX..  ",
"    ........................    ",
"    ........................    "
};
