/* XPM */
static char *c3a19cac1e5e446cdeaa90333532fc90AGawtxlnAkCYm5YP[] = {
/* columns rows colors chars-per-pixel */
"32 32 248 2 ",
"   c #3D253B",
".  c #372133",
"X  c #25131A",
"o  c #2C1924",
"O  c #3E253B",
"+  c #3A2337",
"@  c #341F2F",
"#  c #2F1C2A",
"$  c #1E1317",
"%  c #25161F",
"&  c #362031",
"*  c #341E2F",
"=  c #211318",
"-  c gray7",
";  c #181214",
":  c #291620",
">  c #382134",
",  c #1D1317",
"<  c #181A1A",
"1  c #1D1F1F",
"2  c #181919",
"3  c #311C2A",
"4  c #303736",
"5  c #44504F",
"6  c #2D3433",
"7  c #301C2A",
"8  c #241319",
"9  c #131313",
"0  c #161717",
"q  c #161716",
"w  c #141515",
"e  c #171818",
"r  c #313938",
"t  c #434E4D",
"y  c #2E3434",
"u  c #191416",
"i  c #221218",
"p  c #26151E",
"a  c #3B2439",
"s  c #271B26",
"d  c #1E2020",
"f  c #424E4D",
"g  c #313B35",
"h  c #54615E",
"j  c #606E6D",
"k  c #44504C",
"l  c #222925",
"z  c black",
"x  c #060304",
"c  c #26141B",
"v  c #3C243A",
"b  c #222626",
"n  c #3D4847",
"m  c #444F4F",
"M  c #5C6A69",
"N  c #586664",
"B  c #A7B0AA",
"V  c #B8C0BB",
"C  c #778482",
"Z  c #6E7772",
"A  c #888988",
"S  c #201016",
"D  c #24131C",
"F  c #3A2336",
"G  c #252929",
"H  c #4A5756",
"J  c #5C6968",
"K  c #BAC2BD",
"L  c #CDD5D0",
"P  c #7D8987",
"I  c #78817B",
"U  c #999997",
"Y  c #793745",
"T  c #99414B",
"R  c #53292E",
"E  c #5D6B6A",
"W  c #3F4A48",
"Q  c #65706E",
"!  c #6A7573",
"~  c #63706F",
"^  c #4C5957",
"/  c #525E5B",
"(  c #555757",
")  c #903F49",
"_  c #BC4C51",
"`  c #652E31",
"'  c #596665",
"]  c #4F5C5B",
"[  c #3A3D3F",
"{  c #291C28",
"}  c #241A23",
"|  c #472529",
" . c #592A2C",
".. c #672F32",
"X. c #753437",
"o. c #5C3134",
"O. c #322D30",
"+. c #39383A",
"@. c #505D5C",
"#. c #546160",
"$. c #596766",
"%. c #46494A",
"&. c #28161F",
"*. c #392235",
"=. c #1B161A",
"-. c #693032",
";. c #84373C",
":. c #2C2126",
">. c #475352",
",. c #4E5253",
"<. c #28151E",
"1. c #362030",
"2. c #2A1C29",
"3. c #251A24",
"4. c #51272F",
"5. c #7A3339",
"6. c #5A272D",
"7. c #291B21",
"8. c #363538",
"9. c #383739",
"0. c #464649",
"q. c #87918F",
"w. c #909B98",
"e. c #5A5D5E",
"r. c #676D6D",
"t. c #6F7171",
"y. c #372031",
"u. c #B8BDBA",
"i. c #51464A",
"p. c #716B6C",
"a. c #372132",
"s. c #382135",
"d. c #3F2B33",
"f. c #483534",
"g. c #423030",
"h. c #38282A",
"j. c #3B2B2C",
"k. c #AFADA4",
"l. c #BEBDB4",
"z. c #675956",
"x. c #7D736E",
"c. c #948F89",
"v. c #37262B",
"b. c #2D1925",
"n. c #614E47",
"m. c #9A8571",
"M. c #867564",
"N. c #64594F",
"B. c #706357",
"V. c #897766",
"C. c #594D46",
"Z. c #5D4A44",
"A. c #927E6C",
"S. c #847363",
"D. c #6C6054",
"F. c #77685B",
"G. c #8A7565",
"H. c #887363",
"J. c #9E846A",
"K. c #A68A6C",
"L. c #947C67",
"P. c #907B6A",
"I. c #382233",
"U. c #453735",
"Y. c #78695C",
"T. c #332125",
"R. c #B37D44",
"E. c #E6A353",
"W. c #734D31",
"Q. c #5A4741",
"!. c #63584E",
"~. c #988370",
"^. c #B17C43",
"/. c #E3A152",
"(. c #724D31",
"). c #594641",
"_. c #887665",
"`. c #594C45",
"'. c #27151C",
"]. c #29171D",
"[. c #2A181E",
"{. c #2C1A1F",
"}. c #2D191C",
"|. c #301B1D",
" X c #29161B",
".X c #28161C",
"XX c #2B191E",
"oX c #28161D",
"OX c #2E1A27",
"+X c #574B44",
"@X c #322225",
"#X c #433433",
"$X c #483A37",
"%X c #382235",
"&X c #3C2D2E",
"*X c #362528",
"=X c #4A3D3A",
"-X c #50433F",
";X c #4A3836",
":X c #7F6F60",
">X c #675C51",
",X c #3F2D2E",
"<X c #604E47",
"1X c #77695B",
"2X c #513E3A",
"3X c #8E7B69",
"4X c #695D52",
"5X c #443131",
"6X c #6B574E",
"7X c #827162",
"8X c #351F30",
"9X c #4A3639",
"0X c #624E47",
"qX c #6C5A50",
"wX c #7E6E5F",
"eX c #8E7B6A",
"rX c #807061",
"tX c #6E5E53",
"yX c #463735",
"uX c #423334",
"iX c #3C253A",
"pX c #473337",
"aX c #513E3B",
"sX c #867464",
"dX c #796A5C",
"fX c #786A5C",
"gX c #7B6C5E",
"hX c #735F54",
"jX c #6E5A50",
"kX c #382628",
"lX c #503D3A",
"zX c #826E5F",
"xX c #27151D",
"cX c #3F263B",
"vX c #725E53",
"bX c #7E6E60",
"nX c #2C1823",
"mX c #3A2234",
"MX c #65504D",
"NX c #846E64",
"BX c #6F5D57",
"VX c #5B4D4A",
"CX c #645550",
"ZX c #36222A",
"AX c #2B1722",
"SX c #533F40",
"DX c #77645C",
"FX c #534443",
/* pixels */
"                      . X X X X X X X X X X X X o       O       ",
"                  + @ # $ $ $ $ $ $ $ $ $ $ $ $ % @ &   O       ",
"                  * X = - - - - - - - - - - - - ; X :           ",
"              + > # = , - - - - - - - - < 1 2 - ; X :           ",
"              3 X $ - - - - - - - - - - 4 5 6 - ; X :           ",
"              7 8 , - 9 0 q w w w w e 2 r t y w u i p a a       ",
"              s - - - d 5 f g g g g h j k g g g l z x X c v     ",
"              s - - - d 5 f g g g g h j k g g g l z x X c v     ",
"              s - b n m M N g g B V C j k g Z V A S D F +       ",
"              s - G 5 H j J g g K L P j k g I L U X :           ",
"          Y T R - G 5 H j E W W Q ! ~ j ^ W / ! ( X :           ",
"          ) _ ` - G 5 H j E 5 5 5 5 ' j ] 5 5 5 [ X :           ",
"      { } |  ...X.o.O.+.@.@.#.#.#.#.E j $.#.#.#.%.X &.*.*.*.*.*.",
"      =.- - - -._ ;.X :.5 >.j j j j j j j j j j ,.X <.1.1.1.1.1.",
"      2.3.3.3.4.5.6.X 7.8.9.0.0.q.w.e.0.0.0.r.w.t.X &.*.*.*.*.y.",
"              3 X X X X X X X X u.L i.X X X p.L U X :         a.",
"          s.& d.f.g.h.j.f.f.f.f.k.l.z.f.f.f.x.l.c.h.v.& &     a.",
"          b.X n.m.M.N.B.m.m.m.m.m.m.m.m.m.m.m.m.V.N.C.X c v   a.",
"          b.X Z.A.S.D.F.m.m.m.m.G.H.J.K.L.H.P.m.V.N.C.X c v   I.",
"          b.X U.N.Y.m.m.m.m.m.m.T.X R.E.W.X Q.m.V.N.C.X c v     ",
"          b.X U.!.F.~.~.~.~.~.~.T.X ^./.(.X ).~._.!.`.X c v     ",
"          b.X '.].[.{.{.{.{.{.{.c X }.|. XX .X{.XX].oXX c v     ",
"          b.X X X X X X X X X X X X X X X X X X X X X X c v     ",
"          + > OXX h.+X+X+X+X+X+X+X+X@XX #X+X+X+X$XX <.> %X      ",
"              3 X &XN.N.N.N.N.N.N.N.*XX =XN.N.N.-XX :           ",
"              3 X ;X_.:XN.>X_._._._.,XX <X_.1XN.-XX :           ",
"              3 X 2Xm.3XN.4Xm.m.m.m.5XX 6Xm.7XN.-XX :           ",
"          8X3 9X0XqXwXY.N.4Xm.m.m.m.5XX 6Xm.eXrXtXyXuX3 3 iX    ",
"          b.X n.m.M.N.N.N.4Xm.m.m.m.5XX 6Xm.m.m.V.N.C.X c v     ",
"  O   & * pXaXqXsXdXN.4XfXgXm.m.hXjXkXX lXjXzXm.V.N.C.X xXv   cX",
"      3 X vXm.bXN.N.N.B.m.m.m.m.T.X X X X X Q.m.V.N.C.X nX      ",
"      mXb.MXNXBXVXVXVXCXNXNXNXNXZXAXAXAXAXAXSXNXDXVXFXb.>       "
};
