/* XPM */
static char *_856d22ae0754160e0e6be26627f9d7b3VO3o92SdEQwxmA3[] = {
/* columns rows colors chars-per-pixel */
"32 32 11 1 ",
"  c #4C2F49",
". c #593756",
"X c #6E4A48",
"o c #78514F",
"O c #3D253B",
"+ c #543740",
"@ c #483040",
"# c #25131A",
"$ c #422C3B",
"% c #4F3740",
"& c white",
/* pixels */
"          ..    ..........      ",
"          ..    ..........      ",
"  XXXXXXXXXXXXXXXXXXXXXXXXXXXX  ",
"  XXXXXXXXXXXXXXXXXXXXXXXXXXXX  ",
"  XXXXXXXXXXXXXXXXXXXXXXXXXXXX  ",
"  XXXXXXXXXXXXXXXXXXXXXXXXXXXX  ",
"  oooooooooooooooooooooooooooo  ",
"  oooooooooooooooooooooooooooo  ",
"OO++++++++++++++++++++++++++++OO",
"OO++++++++++++++++++++++++++++OO",
"OO++++++++++++++++++++++++++++  ",
"OO++++++++++++++++++++++++++++  ",
"OO@@++++++++++++++++++++++++@@OO",
"OO@@++++++++++++++++++++++++@@OO",
"##OOOOOOOOOOOOOOOOOOOOOOOOOOOOOO",
"##OOOOOOOOOOOOOOOOOOOOOOOOOOOOOO",
"OO@@++++++++++++++++++++++++@@OO",
"OO@@++++++++++++++++++++++++@@OO",
"OO++++++++++++++++++++++++++++##",
"OO++++++++++++++++++++++++++++##",
"##@@++++++++++++++++++++++++@@OO",
"##@@++++++++++++++++++++++++@@OO",
"OOOOOO####################OOOO##",
"OOOOOO####################OOOO##",
"##$$%%%%%%%%$$##$$%%%%%%%%%%$$OO",
"##$$%%%%%%%%$$##$$%%%%%%%%%%$$OO",
"##%%%%%%%%%%%%##%%%%%%%%%%%%%%##",
"##%%%%%%%%%%%%##%%%%%%%%%%%%%%##",
"##$$$$$$$$$$$$##$$$$$$$$$$$$$$##",
"##$$$$$$$$$$$$##$$$$$$$$$$$$$$##",
"################################",
"################################"
};
