/* XPM */
static char *_24fa410b95b438c898318c5322774e8GTvTWMAE4pkfUW9f[] = {
/* columns rows colors chars-per-pixel */
"32 32 113 2 ",
"   c #4C2F49",
".  c #513349",
"X  c #543649",
"o  c #5E3B52",
"O  c #5E3C53",
"+  c #56374B",
"@  c #59394E",
"#  c #57374B",
"$  c #503249",
"%  c #603F48",
"&  c #6E4A48",
"*  c #5E3D48",
"=  c #65434C",
"-  c #77504E",
";  c #63414C",
":  c #66434D",
">  c #78514F",
",  c #41283F",
"<  c #523542",
"1  c #5D3E44",
"2  c #503341",
"3  c #3D253B",
"4  c #4B303E",
"5  c #543740",
"6  c #492F3E",
"7  c #4D3142",
"8  c #503344",
"9  c #472E3E",
"0  c #4E3440",
"q  c #513540",
"w  c #4A2F41",
"e  c #432B3E",
"r  c #483040",
"t  c #4D3340",
"y  c #351F30",
"u  c #3E2739",
"i  c #442C3E",
"p  c #482F3E",
"a  c #4D313E",
"s  c #482E3E",
"d  c #41293D",
"f  c #25131A",
"g  c #331E2D",
"h  c #291620",
"j  c #362030",
"k  c #3F273C",
"l  c #40283C",
"z  c #41283C",
"x  c #40273C",
"c  c #3E263B",
"v  c #4E3340",
"b  c #432B3D",
"n  c #4A303E",
"m  c #3E262F",
"M  c #3E262E",
"N  c #3D2633",
"B  c #4A3140",
"V  c #4F3440",
"C  c #422A3B",
"Z  c #3A2430",
"A  c #351F31",
"S  c #3C2538",
"D  c #40283D",
"F  c #42293D",
"G  c #442B3D",
"H  c #3F2736",
"J  c #341E26",
"K  c #402837",
"L  c #372131",
"P  c #361F31",
"I  c #372133",
"U  c #321D2C",
"Y  c #301B29",
"T  c #392334",
"R  c #40293B",
"E  c #432B3C",
"W  c #472F3E",
"Q  c #432C39",
"!  c #3C272F",
"~  c #36222C",
"^  c #35212C",
"/  c #2A1720",
"(  c #2D1A23",
")  c #38232D",
"_  c #442D3A",
"`  c #422B3C",
"'  c #36222D",
"]  c #422C3B",
"[  c #48313D",
"{  c #4F3740",
"}  c #442E3C",
"|  c #2F1B25",
" . c #34202B",
".. c #47303D",
"X. c #39242F",
"o. c #4B333E",
"O. c #49323E",
"+. c #301D26",
"@. c #37232D",
"#. c #4A333E",
"$. c #3E2836",
"%. c #3E2830",
"&. c #331F27",
"*. c #3B262E",
"=. c #3C2730",
"-. c #4C343F",
";. c #321E26",
":. c #39252D",
">. c #3A252E",
",. c #34202C",
"<. c #3F2937",
"1. c #2D1A24",
"2. c #331F29",
/* pixels */
"  . X X X X X X X X o O + X X X @ O O O O O O O O O O # X X X $ ",
"  % & & & & & & & & & & & & & & & & & & & & & & & & & & & & & * ",
"  % & & & & & & & & & & & & & & & & & & & & & & & & & & & & & * ",
"  % & & & & & & & & & & & & & & & & & & & & & & & & & & & & & * ",
"  % & & & & & & & & & & & & & & & & & & & & & & & & & & & & & * ",
"  = - - - - - - - - - - - - - - - - - - - - - - - - - - - - - ; ",
"  : > > > > > > > > > > > > > > > > > > > > > > > > > > > > > ; ",
", < 1 1 1 1 1 1 1 1 1 1 1 1 1 1 1 1 1 1 1 1 1 1 1 1 1 1 1 1 1 2 ",
"3 4 5 5 5 5 5 5 5 5 5 5 5 5 5 5 5 5 5 5 5 5 5 5 5 5 5 5 5 5 5 6 ",
"3 4 5 5 5 5 5 5 5 5 5 5 5 5 5 5 5 5 5 5 5 5 5 5 5 5 5 5 5 5 5 7 ",
"3 4 5 5 5 5 5 5 5 5 5 5 5 5 5 5 5 5 5 5 5 5 5 5 5 5 5 5 5 5 5 8 ",
"3 9 0 q 5 5 5 5 5 5 5 5 5 5 5 5 5 5 5 5 5 5 5 5 5 5 5 5 5 q 0 w ",
"3 e r t 5 5 5 5 5 5 5 5 5 5 5 5 5 5 5 5 5 5 5 5 5 5 5 5 5 t r e ",
"y u i p a a a a a a a a a a a a a a a a a a a a a a a a a s i d ",
"f g 3 3 3 3 3 3 3 3 3 3 3 3 3 3 3 3 3 3 3 3 3 3 3 3 3 3 3 3 3 3 ",
"h j k l z z z z z z z z z z z z z z z z z z z z z z z z z x k c ",
"3 e r t 5 5 5 5 5 5 5 5 5 5 5 5 5 5 5 5 5 5 5 5 5 5 5 5 5 t r e ",
"3 i r v 5 5 5 5 5 5 5 5 5 5 5 5 5 5 5 5 5 5 5 5 5 5 5 5 5 t r b ",
"3 n 5 5 5 5 5 5 5 5 5 5 5 5 5 5 5 5 5 5 5 5 5 5 5 5 5 5 5 5 5 m ",
"3 4 5 5 5 5 5 5 5 5 5 5 5 5 5 5 5 5 5 5 5 5 5 5 5 5 5 5 5 5 5 M ",
"h N B V 5 5 5 5 5 5 5 5 5 5 5 5 5 5 5 5 5 5 5 5 5 5 5 5 5 v B C ",
"f Z r t 5 5 5 5 5 5 5 5 5 5 5 5 5 5 5 5 5 5 5 5 5 5 5 5 5 t r e ",
"A S D F G H J J J J J J J J J J J J J J J J J J J J J K G F D L ",
"3 3 3 3 3 P f f f f f f f f f f f f f f f f f f f f f I 3 3 3 U ",
"Y T R E W Q ! ! ! ! ! ! ~ ^ / f ( ^ ) ! ! ! ! ! ! ! ! _ W ` R T ",
"f ' ] [ { { { { { { { { } ] | f  .] ..{ { { { { { { { { { ..] R ",
"f X...o.{ { { { { { { { O...+.f @...#.{ { { { { { { { { { #...$.",
"f %.{ { { { { { { { { { { { &.f *.{ { { { { { { { { { { { { { *.",
"f =.-.-.-.-.-.-.-.-.-.-.-.-.;.f :.-.-.-.-.-.-.-.-.-.-.-.-.-.-.>.",
"f ' ] ] ] ] ] ] ] ] ] ] ] ] | f  .] ] ] ] ] ] ] ] ] ] ] ] ] ] ,.",
"f  .<.<.<.<.<.<.<.<.<.<.<.<.1.f 2.<.<.<.<.<.<.<.<.<.<.<.<.<.<.2.",
"f f f f f f f f f f f f f f f f f f f f f f f f f f f f f f f f "
};
